<svg id="Layer_1" data-name="Layer 1" xmlns="http://www.w3.org/2000/svg" viewBox="0 0 1456.48 1399.75"><defs><style>.cls-1{fill:#fff;}</style></defs><path class="cls-1" d="M736.25,942.3H-101.57V-174.79H736.25ZM247.94,367.56c-4.15,2.24-8.5,4.31-12.57,6.84a127.14,127.14,0,0,0-12,8.47,66.77,66.77,0,0,0-21.1,28c-2.82,7.15-5.15,14.52-7.34,21.89-12.09,40.75-17.29,82.51-17.88,124.91a382,382,0,0,0,4.74,65.93c4.55,28.41,11.48,56.16,23,82.63,12,27.57,27.25,52.88,49.93,73.2,16.89,15.13,36.13,25.33,58.59,29.21,4.64.8,4.56.79,6.8-3.16.51-.91,1.7-2,2.53-2s1.78,1.29,2.48,2.16c.42.53.31,1.53.77,2a5.38,5.38,0,0,0,2.68,1.79,24.23,24.23,0,0,0,5.7-.2,103,103,0,0,0,52.79-22.16c20.58-16.44,35.27-37.37,46.19-61.17a293.41,293.41,0,0,0,23-78.37c3.39-22.19,5.88-44.47,5.41-67-.35-16.61-.78-33.22-1.82-49.79-.79-12.57-2.25-25.13-4-37.61a481.74,481.74,0,0,0-20.39-87,44.58,44.58,0,0,0-8.69-15.22,65.7,65.7,0,0,0-17.57-14.5c-5.52-3.09-11.29-5.74-17-8.63,1.1-2,2.29-4.25,3.51-6.45,15-27.27,23-56.34,22.38-87.61a88.66,88.66,0,0,0-8.29-36.36c-6.86-14.6-16.85-25.57-33.73-28.64,3.82-9.68,5.38-19.46,2.34-29.64.35-.28.68-.58,1-.84,7.09-5.31,9.6-12.55,7.81-20.94-1.88-8.79-7.46-14.57-16.33-16.82-2.19-.56-4.45-.84-6.65-1.38a18.93,18.93,0,0,1-14.52-16.43c-.48-4.24-.94-8.48-1.48-12.71-.49-3.82-2-7.13-5.92-8.4-1.9-.62-4.11-.22-6.15-.52a6.18,6.18,0,0,1-3.24-1.3,12.32,12.32,0,0,0-12.52-3.21,3.58,3.58,0,0,1-1.81,0,14.35,14.35,0,0,0-12.83,2.58,6.48,6.48,0,0,1-3.17,1.2,12.54,12.54,0,0,0-11.62,9.8c-.89,3.59-1.41,7.28-2.27,10.89a30.68,30.68,0,0,1-7.51,14.6,12.45,12.45,0,0,1-8.8,4.21c-9.52.41-18.33,8-20.5,17.21-1.63,6.88,1,14.33,6.93,17.51,2.86,1.54,3.34,3.33,3.31,6.19-.11,10,.1,19.93,3,29.65-6.69,1.56-13.32,3.57-19,7.63a53,53,0,0,0-18.92,24.43c-7.31,18.88-7.39,38.31-3.64,57.91,3.94,20.55,11.36,39.92,20.35,58.73C245.23,362,246.6,364.78,247.94,367.56Z" transform="translate(101.57 259.21)"/><path d="M247.94,367.56c-1.34-2.78-2.71-5.6-4.06-8.44-9-18.81-16.41-38.18-20.35-58.73-3.75-19.6-3.67-39,3.64-57.91a53,53,0,0,1,18.92-24.43c5.69-4.06,12.32-6.07,19-7.63-2.9-9.72-3.11-19.68-3-29.65,0-2.86-.45-4.65-3.31-6.19-5.91-3.18-8.56-10.63-6.93-17.51,2.17-9.22,11-16.8,20.5-17.21a12.45,12.45,0,0,0,8.8-4.21,30.68,30.68,0,0,0,7.51-14.6c.86-3.61,1.38-7.3,2.27-10.89a12.54,12.54,0,0,1,11.62-9.8,6.48,6.48,0,0,0,3.17-1.2,14.35,14.35,0,0,1,12.83-2.58,3.58,3.58,0,0,0,1.81,0,12.32,12.32,0,0,1,12.52,3.21,6.18,6.18,0,0,0,3.24,1.3c2,.3,4.25-.1,6.15.52,3.9,1.27,5.43,4.58,5.92,8.4.54,4.23,1,8.47,1.48,12.71a18.93,18.93,0,0,0,14.52,16.43c2.2.54,4.46.82,6.65,1.38,8.87,2.25,14.45,8,16.33,16.82,1.79,8.39-.72,15.63-7.81,20.94-.36.26-.69.56-1,.84,3,10.18,1.48,20-2.34,29.64,16.88,3.07,26.87,14,33.73,28.64A88.66,88.66,0,0,1,418,273.73c.59,31.27-7.36,60.34-22.38,87.61-1.22,2.2-2.41,4.42-3.51,6.45,5.75,2.89,11.52,5.54,17,8.63a65.7,65.7,0,0,1,17.57,14.5,44.58,44.58,0,0,1,8.69,15.22,481.74,481.74,0,0,1,20.39,87c1.74,12.48,3.2,25,4,37.61,1,16.57,1.47,33.18,1.82,49.79.47,22.49-2,44.77-5.41,67a293.41,293.41,0,0,1-23,78.37c-10.92,23.8-25.61,44.73-46.19,61.17a103,103,0,0,1-52.79,22.16,24.23,24.23,0,0,1-5.7.2,5.38,5.38,0,0,1-2.68-1.79c-.46-.47-.35-1.47-.77-2-.7-.87-1.61-2.12-2.48-2.16s-2,1.09-2.53,2c-2.24,3.95-2.16,4-6.8,3.16-22.46-3.88-41.7-14.08-58.59-29.21-22.68-20.32-37.94-45.63-49.93-73.2-11.51-26.47-18.44-54.22-23-82.63a382,382,0,0,1-4.74-65.93c.59-42.4,5.79-84.16,17.88-124.91,2.19-7.37,4.52-14.74,7.34-21.89a66.77,66.77,0,0,1,21.1-28,127.14,127.14,0,0,1,12-8.47C239.44,371.87,243.79,369.8,247.94,367.56Zm68.15,437.88c.61-1.29.83-2.53,1.57-3.19,2.18-2,2-4.42,2-7-.14-20.53-.34-41.06-.33-61.59,0-41.16.22-82.31.26-123.47,0-21-.15-42-.18-63,0-13.08.13-26.16.11-39.24,0-19.08-.15-38.15-.22-57.22-.07-20.9-.28-41.8-.11-62.69,0-5.68-2.53-9.69-6.23-13.27-1.43-1.39-3.45-2.17-5.23-3.18-2.72-1.53-5.31-3.65-8.24-4.39a93.12,93.12,0,0,0-16.33-2.64c-10.5-.71-20.45,2.56-30.13,5.91a86.64,86.64,0,0,0-38.24,26.13c-5.21,6.16-9.86,12.6-11.81,20.72s-4.64,16.19-6.78,24.33c-9.92,37.67-15.13,76-14.63,115,.22,17.4,1.5,34.83,3.11,52.17a337.33,337.33,0,0,0,18.94,83.65c9.6,26.63,22.78,51.2,41.44,72.61,13.2,15.15,28.8,27.07,47.58,34.5A87.69,87.69,0,0,0,316.09,805.44Zm7.11-7.17c1.86,1.17,3.92,1.78,4.76,3.14,1.62,2.66,3.56,3.14,6.28,2.41a23.72,23.72,0,0,1,2.7-.3c21.58-2.89,39.75-12.76,55.45-27.45,18.27-17.09,30.67-38.17,40.21-61,17.88-42.75,24.52-87.75,25.43-133.74.25-12.69-.07-25.44-1-38.1-1-14.74-2.59-29.47-4.59-44.1-4-28.91-11-57.18-18.15-85.43a46.72,46.72,0,0,0-15.07-24.86c-15.29-13.17-33.36-20.09-53.12-22.14-12.14-1.26-24.33-.16-35,7-5.06,3.4-8.78,7.32-8.6,14.3.35,14.53,0,29.07,0,43.6q0,54.38.12,108.75c.14,45.79.41,91.58.55,137.37.08,26.25,0,52.5,0,78.76Zm-2.41-420.78c10.57-9.76,15.49-12.42,27.28-14.4,11.38-1.9,22.61-.25,33.75,2.07,2.43.5,4.07.1,5.46-2.15a173.42,173.42,0,0,0,20.56-49c5.61-22.46,6.76-45,.25-67.55-4.51-15.58-16.41-31.72-38.78-33.59a7.86,7.86,0,0,1-2.57-.77c-5-2.24-10-3.94-15.68-3.62-6.52.37-13.06.46-19.58.5-9.44.05-19-.82-28.3.1-13.39,1.31-26.79,3.08-39.88,6.48s-23.46,10.39-29.76,22.69a64.73,64.73,0,0,0-6.4,20.14c-2.45,16.62-.43,33,3.09,49.22A219.81,219.81,0,0,0,250,362.46c1.78,3.43,2.1,3.72,5.85,2.45a84.12,84.12,0,0,1,31.35-4.39c9.82.47,19.06,2.92,26.7,9.46C316.48,372.18,318.53,375,320.79,377.49Zm-54.3-190.71-.46,0c.5,6.05.93,12.11,1.54,18.15.35,3.55,2.1,4.86,5.67,4.31,6.54-1,13.06-2.13,19.58-3.22,12.06-2,24.23-1.77,36.39-1.74,6.25,0,12.51.1,18.75-.12a41.18,41.18,0,0,1,15.28,1.94c6.78,2.38,6.08,3.59,8.71-4.16,2.51-7.43,2.38-15.24.95-22.9-.44-2.34-.15-3.71,1.83-5a16.71,16.71,0,0,0,4-3.64c7.32-9.43,1.74-23.27-10.05-25.23a63.87,63.87,0,0,1-9.19-2.15c-8.39-2.73-13.3-8.64-14.56-17.32-.72-4.91-.92-9.91-1.25-14.88-.34-5.19-2.65-7.09-7.63-5.69-2.76.77-4.6.3-6.3-2.11-2.06-2.92-5.49-3.25-8.68-1.64a4.82,4.82,0,0,1-3.71,0,7.94,7.94,0,0,0-9.15,1.67,6.09,6.09,0,0,1-3.74,1.65c-4.69.15-7.65,2.42-9.9,6.44-1.28,2.27-.27,4.18-.2,6.24.47,14.26-8.8,25.8-22.85,28.34-5.7,1-10.18,3.79-13,8.92-4,7.24-1.25,14.83,6.28,18.23a4,4,0,0,1,1.61,3C266.61,179.51,266.49,183.15,266.49,186.78Z" transform="translate(101.57 259.21)"/><path class="cls-1" d="M316.09,805.44a87.69,87.69,0,0,1-23.42-5.81c-18.78-7.43-34.38-19.35-47.58-34.5-18.66-21.41-31.84-46-41.44-72.61a337.33,337.33,0,0,1-18.94-83.65c-1.61-17.34-2.89-34.77-3.11-52.17-.5-39,4.71-77.29,14.63-115,2.14-8.14,4.82-16.15,6.78-24.33s6.6-14.56,11.81-20.72a86.64,86.64,0,0,1,38.24-26.13c9.68-3.35,19.63-6.62,30.13-5.91a93.12,93.12,0,0,1,16.33,2.64c2.93.74,5.52,2.86,8.24,4.39,1.78,1,3.8,1.79,5.23,3.18,3.7,3.58,6.28,7.59,6.23,13.27-.17,20.89,0,41.79.11,62.69.07,19.07.19,38.14.22,57.22,0,13.08-.12,26.16-.11,39.24,0,21,.2,42,.18,63,0,41.16-.23,82.31-.26,123.47,0,20.53.19,41.06.33,61.59,0,2.54.15,5-2,7C316.92,802.91,316.7,804.15,316.09,805.44Z" transform="translate(101.57 259.21)"/><path class="cls-1" d="M323.2,798.27V756.55c0-26.26.07-52.51,0-78.76-.14-45.79-.41-91.58-.55-137.37q-.15-54.37-.12-108.75c0-14.53.36-29.07,0-43.6-.18-7,3.54-10.9,8.6-14.3,10.68-7.19,22.87-8.29,35-7,19.76,2.05,37.83,9,53.12,22.14a46.72,46.72,0,0,1,15.07,24.86c7.17,28.25,14.19,56.52,18.15,85.43,2,14.63,3.56,29.36,4.59,44.1.89,12.66,1.21,25.41,1,38.1-.91,46-7.55,91-25.43,133.74-9.54,22.79-21.94,43.87-40.21,61-15.7,14.69-33.87,24.56-55.45,27.45a23.72,23.72,0,0,0-2.7.3c-2.72.73-4.66.25-6.28-2.41C327.12,800.05,325.06,799.44,323.2,798.27Z" transform="translate(101.57 259.21)"/><path class="cls-1" d="M320.79,377.49c-2.26-2.5-4.31-5.31-6.88-7.51-7.64-6.54-16.88-9-26.7-9.46a84.12,84.12,0,0,0-31.35,4.39c-3.75,1.27-4.07,1-5.85-2.45a219.81,219.81,0,0,1-19.78-54.88c-3.52-16.19-5.54-32.6-3.09-49.22a64.73,64.73,0,0,1,6.4-20.14c6.3-12.3,16.65-19.28,29.76-22.69s26.49-5.17,39.88-6.48c9.34-.92,18.86-.05,28.3-.1,6.52,0,13.06-.13,19.58-.5,5.64-.32,10.69,1.38,15.68,3.62a7.86,7.86,0,0,0,2.57.77c22.37,1.87,34.27,18,38.78,33.59,6.51,22.52,5.36,45.09-.25,67.55a173.42,173.42,0,0,1-20.56,49c-1.39,2.25-3,2.65-5.46,2.15-11.14-2.32-22.37-4-33.75-2.07C336.28,365.07,331.36,367.73,320.79,377.49Z" transform="translate(101.57 259.21)"/><path class="cls-1" d="M266.49,186.78c0-3.63.12-7.27-.08-10.89a4,4,0,0,0-1.61-3c-7.53-3.4-10.26-11-6.28-18.23,2.82-5.13,7.3-7.89,13-8.92,14.05-2.54,23.32-14.08,22.85-28.34-.07-2.06-1.08-4,.2-6.24,2.25-4,5.21-6.29,9.9-6.44a6.09,6.09,0,0,0,3.74-1.65,7.94,7.94,0,0,1,9.15-1.67,4.82,4.82,0,0,0,3.71,0c3.19-1.61,6.62-1.28,8.68,1.64,1.7,2.41,3.54,2.88,6.3,2.11,5-1.4,7.29.5,7.63,5.69.33,5,.53,10,1.25,14.88,1.26,8.68,6.17,14.59,14.56,17.32a63.87,63.87,0,0,0,9.19,2.15c11.79,2,17.37,15.8,10.05,25.23a16.71,16.71,0,0,1-4,3.64c-2,1.29-2.27,2.66-1.83,5,1.43,7.66,1.56,15.47-.95,22.9-2.63,7.75-1.93,6.54-8.71,4.16A41.18,41.18,0,0,0,348,204.19c-6.24.22-12.5.13-18.75.12-12.16,0-24.33-.27-36.39,1.74-6.52,1.09-13,2.21-19.58,3.22-3.57.55-5.32-.76-5.67-4.31-.61-6-1-12.1-1.54-18.15Z" transform="translate(101.57 259.21)"/><path class="cls-1" d="M1347.94,857.88H510.12V-259.21h837.82ZM1054.92,172a53.28,53.28,0,0,0-23.82,8.37,7.19,7.19,0,0,1-3.44,1.44c-4.79.07-8.66,2.14-12.39,4.88s-7.9,5.48-11.84,8.24c-10.87,7.6-21.77,15.15-32.53,22.88-1.79,1.29-4.46,2.05-4.53,5.12-.15,7-.62,14-.64,21-.08,25.9,0,51.79-.05,77.69q-.16,79.73-.42,159.44c0,2.8.76,4.9,3.92,5.8,3.9,1.11,7.65,2.78,11.51,4.07q40.35,13.56,80.75,27a7.89,7.89,0,0,0,4.69.4c1.35-.48,2.31-2.09,3.78-3.54,15.2,16.14,34,27.13,55,35.51,1.89,11.41,12.54,24,30.31,18,1,1.94,2.06,3.94,3.13,5.9,2.4,4.39,5.39,7.82,11.1,6.86.12,0,.29.17.27.16,1.14,3.22,2,6.4,3.36,9.33,1.69,3.66,4.28,6.36,8.71,5.41,2.07,5.7,1.25,12.59,7.93,16.17a25.65,25.65,0,0,0,.17,3c.56,3.56,0,7.65,4.33,9.53.21.08.33.58.32.89,0,2.17,0,4.34-.14,6.5-.3,7.12-.34,14.2,3.83,20.43a2.73,2.73,0,0,1,.07,3.33c-1.59,3-2.72,6.22-1.36,9.59a3.81,3.81,0,0,0,2.51,2.13c.73.08,2-1.09,2.35-2a38.29,38.29,0,0,0,1.18-5c.47-1.77.55-4.15,1.73-5.1a5.74,5.74,0,0,1,6.37-.24c2.7,1.47,5.45,2.88,8.28,4.09,1,.44,3.08.71,3.41.22a5.82,5.82,0,0,0,.65-4,4.59,4.59,0,0,0-2.08-2.68c-3-1.81-6.12-3.47-9.28-5a3.15,3.15,0,0,1-2-2.77,77.72,77.72,0,0,0-2.6-11.32,60.43,60.43,0,0,0-3.8-8.12c-1-1.9-.79-3.12,1.25-4.42,3.79-2.41,4.13-5.26,1.52-9-1-1.49-2.25-2.86-3.28-4.35a3.44,3.44,0,0,1-.84-2.14c1.48-7.6-2.89-12.1-8.33-16.07-.76-.56-1.54-1.11-2.29-1.64,3.51-5.71,2.4-9.74-3.32-12.42-2.52-1.17-5.17-2.07-7.68-3.07-.35-8.84-2.79-11.62-11.35-13.3-2.9-.56-5.77-1.29-8.54-1.92-.76-6.42-2.79-9.85-8.15-13.06a32.42,32.42,0,0,0-7.9-3.56c-5.86-1.61-11.34-3.53-13.93-9.72a1.54,1.54,0,0,0-.35-.42l-13.54-12.58c-12.53-11.64-27.06-19.28-44-22.16a6.59,6.59,0,0,1-3.88-2.47,23.75,23.75,0,0,0-8.59-7.54q-29.31-15.33-58.43-31a3.71,3.71,0,0,1-1.63-2.65c-.8-25.14-1.49-50.29-2.2-75.44-.73-25.6-1.4-51.21-2.22-76.8-.65-20.42-1.48-40.83-2.3-61.24a3.26,3.26,0,0,1,1.65-3.34c4.59-2.92,9-6.2,13.69-8.91,7.23-4.16,12.89-10.83,21.26-13.15a5.93,5.93,0,0,0,1.6-1c2.61-1.82,5.26-3.59,7.81-5.48,7.58-5.6,14.59-11.76,18.6-20.58,1.06-2.33,2.06-4.42,4.87-5.34,1.38-.45,2.56-2,3.45-3.32a5,5,0,0,1,4.12-2.59c5-.24,8.89-2.69,12.47-6a28.79,28.79,0,0,0,8-14c1.36-4.9,4.86-7.81,9.15-7.18,5.49.81,10.4-.64,15.25-2.91a8.24,8.24,0,0,0,5-6c.44-2.19.53-4.45.83-7.19,2.82,0,5.73.2,8.59,0,5-.43,8.09-3.91,8.19-8.84,0-1,0-1.93,0-2.94,1.41-.23,2.57-.43,3.73-.6,4.8-.71,8.62-3.77,8.78-8.59.13-3.58,2-5.39,4.1-7.44,1.25-1.19,2.48-2.4,3.66-3.66,3.63-3.86,3.76-6.62.54-10.74,1.14-1.4,2.38-2.74,3.41-4.22,3.55-5.1,5.35-10.61,2.64-16.6-1-2.21-.31-3.43,1-5,1.57-1.84,3.35-3.73,4.16-5.91.63-1.71.66-5-.35-5.66-2.14-1.5-3.23,1.38-4.44,2.73a21.34,21.34,0,0,0-2.27,4c-.61,1.08-1.23,2.14-1.66,2.89-1.69-.31-3.06-.91-4.31-.73-2.63.38-3.89-.83-5-3a37,37,0,0,0-3.73-5.94,3.05,3.05,0,0,0-2.41-.66c-.36,0-.93,1.15-.87,1.72.44,4.28,1.62,8.18,6,10.18-.43,7.33-.82,14.58-1.35,21.81a2.91,2.91,0,0,1-1.68,1.92c-3.68,1.29-4.92,2.58-5.16,6.39-.16,2.76,0,5.53,0,8.51-6.13.26-7.14,6.05-9.71,10-8.41-1-11.37,6.21-16.25,10.33-4.55-3-9.52-2.11-13.17,1.8-5,5.38-10.25,10.52-15.49,15.66a6,6,0,0,1-3.51,1.86c-7.45.19-13.25,4.24-19,8.17-4.6,3.16-8.16,7.3-7.58,13.58a2.33,2.33,0,0,1-.79,1.75C1053.87,167.14,1053.8,167.26,1054.92,172Zm-258.36.87c.49,5.47,1.91,9.42,7,13.59,7.35,6.08,13.56,13.76,22.89,17.26a36.83,36.83,0,0,1,6,2.79q15.89,9.49,31.65,19.2a3.25,3.25,0,0,1,1.27,2.52c-.36,5.23-1.07,10.44-1.41,15.68-.8,12.58-1.48,25.17-2.17,37.76Q860.36,307.32,859,333c-.66,13.15-1.18,26.3-1.84,39.45-1,19.76-2.06,39.52-3.08,59.28-.53,10.33-1.08,20.67-1.53,31a2.85,2.85,0,0,1-2,2.8q-11.91,5.7-23.76,11.53c-6.93,3.39-13.87,6.77-20.74,10.26-3.71,1.89-7.59,3.63-10.85,6.13-5,3.84-9.64,8.16-16.27,9a2,2,0,0,0-.52.18c-19.24,7.22-36.74,16.92-49,34.2-2.72,3.84-3.3,10.48,3.86,12.12a9.51,9.51,0,0,1,1.42.56c-2.63,7.49-11.87,15.16-20,16.72-2.53.49-5.3,1.07-7.05-1.34s-.46-5.11.85-7.4A30.24,30.24,0,0,1,720.27,546c1.89-1.06,3.89-1.94,5.78-3,.45-.26.64-1,1-1.48a6.42,6.42,0,0,0-1.73-.95,3.89,3.89,0,0,0-1.84.31c-8.83,3-15.57,8.36-19.54,17a3.66,3.66,0,0,1-2.21,1.79c-4.82,1.18-9.7,2.12-14.54,3.25-3.7.86-5.75,3.15-4.78,6.63.9,3.25-.77,4.16-2.85,5.35-4.35,2.49-6.75,6.25-5.86,11.23.64,3.6-1.1,5.47-3.5,7.3-2.1,1.6-4.3,3.06-6.27,4.8-3.63,3.22-3.76,4.9-1.18,8.34a51.34,51.34,0,0,0-4.2,5.72c-2.46,4.5-1.67,7.76,2.15,10.84a2.25,2.25,0,0,1,.79,1.78,35,35,0,0,1-1.9,7.29c-2.42,5.45-5.14,10.76-7.81,16.08-.21.42-.94.63-1.46.81-3.87,1.37-6.84,3.65-8,7.77-.63,2.2.06,3.39,2.23,3.06a9.71,9.71,0,0,0,4.41-2.16c2.77-2.26,4.84-5.19,9.45-3.45,3.5,1.32,4.24,1.31,5,5.06a68.77,68.77,0,0,0,2.24,8.57c.56,1.66,1.94,1.91,3.11.46a7.39,7.39,0,0,0,1.12-2.67c1.23-4.5.05-8.71-1.46-12.94a4.92,4.92,0,0,1,.32-3.36c3.9-8.23,6.06-16.54,1.89-25.35a3.91,3.91,0,0,1-.19-1c4.87-3.56,3.27-8.76,3.34-13.6,1.14.14,2,.26,2.91.35,4.09.43,5.8-.73,6.21-4.86a55.93,55.93,0,0,0-.23-7.86c0-1.13-.1-2.25-.15-3.34,7.71-1.15,9.88-3.63,11.83-13.19,11.92-1.21,10.69-2.63,14.66-10,.08,0,.17-.12.24-.1,10.81,2.39,27.67-9.8,30-19.71a2.35,2.35,0,0,1,1.56-1.4c12.16-1.89,23-7.09,33.45-13.29,9.53-5.67,18.76-11.85,25.05-21.41a5.87,5.87,0,0,1,2.65-1.73c8.22-3.39,16.52-6.57,24.68-10.08q25.52-11,50.88-22.25c1.27-.56,3-1.85,3.13-2.92.54-7.07,2.84-13.77,2.66-21.11-.42-18.06.42-36.14.73-54.22.48-27.16,1.06-54.32,1.38-81.48.41-35.88.59-71.76,1-107.64a4.55,4.55,0,0,0-2.67-4.51c-14-8-27.93-16.23-42-24.13-3.24-1.83-5.94-5.18-10.31-4.62-.23,0-.51-.45-.78-.69-7.83-7.17-16.37-12.59-27.67-11.17-.13,0-.29-.17-.43-.26-.31-2.34-.7-4.86-2.12-6.46s-4-2.51-6.14-3.76c3.36-12.17-15.55-27.58-27.79-24.57-2-1.59-3.72-3-5.5-4.33a7.29,7.29,0,0,1-3.2-4c-2.29-7.82-8.66-11.91-16.49-10.89a58.78,58.78,0,0,0-5.94,1.4c-4-4.75-6.94-11.39-15.31-9.09-.75-1.9-1.4-3.67-2.15-5.41-1.89-4.41-4.06-6-8.26-5.86-.15-1.39-.31-2.81-.45-4.23s-.25-2.89-.44-4.32c-.63-4.61-1-5-5.1-5.89-.52-6-.73-12-1.65-17.91-.46-2.89.43-4.64,2.06-6.73a36.13,36.13,0,0,0,4.38-7.64c.38-.88-.2-3-.89-3.32-1-.44-2.54.13-3.75.55-.59.2-1,1-1.42,1.6-1.61,2.47-3.19,5-4.81,7.53a5.5,5.5,0,0,0-2-.27c-2.72.58-3.84-1.06-4.92-3.11a15.81,15.81,0,0,0-3.11-4.39,4.47,4.47,0,0,0-3.55-.9c-.57.14-1.17,2.15-1,3.14.84,3.9,2.69,7.25,6.33,9.14-1.07,9.05.72,17.07,7.61,23.41-6,3.48-6.33,8-1.22,12.25,2,1.66,4.11,3.26,6.17,4.88-3.22,5.24,1.22,10.73,10.93,13.51.11,6.12.42,6.81,6.22,9.38a86.79,86.79,0,0,0,9,2.91c0,5.36,3.3,8.55,8.2,10.61,4.13,1.73,8.35,1.25,12.6.7.74-.09,1.78-.26,2.24.13,4.1,3.49,8.51,6.18,11,11.79C766.6,157.92,776,162.32,787,163.22,787.14,169.49,789.45,171.79,796.56,172.82Z" transform="translate(101.57 259.21)"/><path d="M1054.92,172c-1.12-4.69-1.05-4.81,2.63-7.63a2.33,2.33,0,0,0,.79-1.75c-.58-6.28,3-10.42,7.58-13.58,5.72-3.93,11.52-8,19-8.17a6,6,0,0,0,3.51-1.86c5.24-5.14,10.49-10.28,15.49-15.66,3.65-3.91,8.62-4.8,13.17-1.8,4.88-4.12,7.84-11.29,16.25-10.33,2.57-3.91,3.58-9.7,9.71-10,0-3-.13-5.75,0-8.51.24-3.81,1.48-5.1,5.16-6.39a2.91,2.91,0,0,0,1.68-1.92c.53-7.23.92-14.48,1.35-21.81-4.37-2-5.55-5.9-6-10.18-.06-.57.51-1.69.87-1.72a3.05,3.05,0,0,1,2.41.66,37,37,0,0,1,3.73,5.94c1.07,2.16,2.33,3.37,5,3,1.25-.18,2.62.42,4.31.73.43-.75,1-1.81,1.66-2.89a21.34,21.34,0,0,1,2.27-4c1.21-1.35,2.3-4.23,4.44-2.73,1,.7,1,3.95.35,5.66-.81,2.18-2.59,4.07-4.16,5.91-1.31,1.54-2,2.76-1,5,2.71,6,.91,11.5-2.64,16.6-1,1.48-2.27,2.82-3.41,4.22,3.22,4.12,3.09,6.88-.54,10.74-1.18,1.26-2.41,2.47-3.66,3.66-2.13,2-4,3.86-4.1,7.44-.16,4.82-4,7.88-8.78,8.59-1.16.17-2.32.37-3.73.6,0,1,0,2,0,2.94-.1,4.93-3.2,8.41-8.19,8.84-2.86.24-5.77,0-8.59,0-.3,2.74-.39,5-.83,7.19a8.24,8.24,0,0,1-5,6c-4.85,2.27-9.76,3.72-15.25,2.91-4.29-.63-7.79,2.28-9.15,7.18a28.79,28.79,0,0,1-8,14c-3.58,3.32-7.47,5.77-12.47,6a5,5,0,0,0-4.12,2.59c-.89,1.32-2.07,2.87-3.45,3.32-2.81.92-3.81,3-4.87,5.34-4,8.82-11,15-18.6,20.58-2.55,1.89-5.2,3.66-7.81,5.48a5.93,5.93,0,0,1-1.6,1c-8.37,2.32-14,9-21.26,13.15-4.72,2.71-9.1,6-13.69,8.91a3.26,3.26,0,0,0-1.65,3.34c.82,20.41,1.65,40.82,2.3,61.24.82,25.59,1.49,51.2,2.22,76.8.71,25.15,1.4,50.3,2.2,75.44a3.71,3.71,0,0,0,1.63,2.65q29.16,15.61,58.43,31a23.75,23.75,0,0,1,8.59,7.54,6.59,6.59,0,0,0,3.88,2.47c17,2.88,31.49,10.52,44,22.16l13.54,12.58a1.54,1.54,0,0,1,.35.42c2.59,6.19,8.07,8.11,13.93,9.72a32.42,32.42,0,0,1,7.9,3.56c5.36,3.21,7.39,6.64,8.15,13.06,2.77.63,5.64,1.36,8.54,1.92,8.56,1.68,11,4.46,11.35,13.3,2.51,1,5.16,1.9,7.68,3.07,5.72,2.68,6.83,6.71,3.32,12.42.75.53,1.53,1.08,2.29,1.64,5.44,4,9.81,8.47,8.33,16.07a3.44,3.44,0,0,0,.84,2.14c1,1.49,2.25,2.86,3.28,4.35,2.61,3.76,2.27,6.61-1.52,9-2,1.3-2.2,2.52-1.25,4.42a60.43,60.43,0,0,1,3.8,8.12A77.72,77.72,0,0,1,1210,645a3.15,3.15,0,0,0,2,2.77c3.16,1.54,6.27,3.2,9.28,5a4.59,4.59,0,0,1,2.08,2.68,5.82,5.82,0,0,1-.65,4c-.33.49-2.37.22-3.41-.22-2.83-1.21-5.58-2.62-8.28-4.09a5.74,5.74,0,0,0-6.37.24c-1.18,1-1.26,3.33-1.73,5.1a38.29,38.29,0,0,1-1.18,5c-.37.89-1.62,2.06-2.35,2a3.81,3.81,0,0,1-2.51-2.13c-1.36-3.37-.23-6.57,1.36-9.59a2.73,2.73,0,0,0-.07-3.33c-4.17-6.23-4.13-13.31-3.83-20.43.09-2.16.12-4.33.14-6.5,0-.31-.11-.81-.32-.89-4.32-1.88-3.77-6-4.33-9.53a25.65,25.65,0,0,1-.17-3c-6.68-3.58-5.86-10.47-7.93-16.17-4.43,1-7-1.75-8.71-5.41-1.36-2.93-2.22-6.11-3.36-9.33,0,0-.15-.18-.27-.16-5.71,1-8.7-2.47-11.1-6.86-1.07-2-2.1-4-3.13-5.9-17.77,5.92-28.42-6.63-30.31-18-20.94-8.38-39.78-19.37-55-35.51-1.47,1.45-2.43,3.06-3.78,3.54a7.89,7.89,0,0,1-4.69-.4q-40.4-13.43-80.75-27c-3.86-1.29-7.61-3-11.51-4.07-3.16-.9-3.92-3-3.92-5.8q.21-79.72.42-159.44c.06-25.9,0-51.79.05-77.69,0-7,.49-14,.64-21,.07-3.07,2.74-3.83,4.53-5.12,10.76-7.73,21.66-15.28,32.53-22.88,3.94-2.76,8-5.4,11.84-8.24s7.6-4.81,12.39-4.88a7.19,7.19,0,0,0,3.44-1.44A53.28,53.28,0,0,1,1054.92,172Zm10,341.76c1.84-4.44,3.76-5,7.84-2.09a37.55,37.55,0,0,1,3.23,2.5c3.31,3,6.36,6.27,9.89,8.94a174.64,174.64,0,0,0,31.37,19,40.27,40.27,0,0,0,10.14,2.83c1.53.27,3.31-.54,4.88-1.13a2.19,2.19,0,0,0,1-1.9,18.1,18.1,0,0,0-1.69-4.52c-5-9.22-13.85-14.82-21.54-21.3-11-9.28-24.4-14-38.41-17-1.48-.32-3.35-1.2-4-2.39-1.4-2.49-3.38-3.7-5.82-5-20.5-11.13-40.75-22.72-61.36-33.62-4.33-2.29-5-5-5.08-9.05-.84-34.69-1.82-69.37-2.7-104.06q-.54-20.83-.84-41.69c-.35-22.52-.61-45-1-67.57a3.93,3.93,0,0,1,2.09-3.74c9.41-6.12,18.77-12.33,27.56-18.12-.81-4.2-2-8.22-2.27-12.29s.43-8.21.71-12.42c-.57.38-1.17.76-1.76,1.17q-21.37,15.06-42.78,30.08a40.05,40.05,0,0,1-4.74,2.51V484.05ZM1022.63,199c.51,3.26.94,6.12,1.4,9,.38,2.37,1.75,2.53,3.48,1.38,3.17-2.1,6.31-4.26,9.42-6.44,7.39-5.19,13.49-11.55,17.57-19.68,1-1.88,2.94-4.25,1-5.88-1.25-1-4.22-.81-6.09-.18-5.38,1.81-10.58,4.13-15.86,6.23-1.18.47-2.42,1.33-3.55,1.22-4-.42-4.92,2.3-5.63,5.11C1023.57,192.91,1023.16,196.14,1022.63,199Zm105.58,350.68a12.93,12.93,0,0,0,.17,2.28c2.26,8.44,12.63,15,21.33,13.5a7.36,7.36,0,0,0,6.46-6.4c.73-4.27-.67-8.07-4.27-10.15-4.55-2.62-9.59-4.41-14.5-6.6C1135.93,547.31,1132.55,548.91,1128.21,549.72Zm-57.82-379.39c5.75-.19,10.18-4.2,13.59-9.47,2.06-3.18,3.71-6.67,3.42-10.7-.33-4.53-2.1-6-6.35-4.55-6,2.11-11.86,4.73-16.25,9.5-1.47,1.6-2.19,4-2.78,6.22-.19.72,1,2,1.71,2.75C1065.63,166,1067.66,167.79,1070.39,170.33Zm20.9-23.29a9.45,9.45,0,0,1,9.16-3.66,22,22,0,0,0,13.87-2.83,5.89,5.89,0,0,0,2.81-3.93,26.8,26.8,0,0,0-.78-8.83,6.5,6.5,0,0,0-3.44-4c-2.19-.73-4.19.55-5.85,2.49a106.76,106.76,0,0,1-9,9.39c-2.83,2.61-6,4.85-9,7.22Zm66.22,420.2c1.22,2,2.71,4.22,4.08,6.56,2.7,4.61,8.26,4.3,11.36,1.41,1-1,1.6-2.43,2.5-3.58,2.34-3,1.57-6-2.08-7.11-2.31-.73-4.82-.85-7.11-1.64C1162.08,561.44,1158.72,561.43,1157.51,567.24ZM1197,624.5c0,5.07-.12,9.87,0,14.66a20.53,20.53,0,0,0,3.09,11.06c1.07,1.61,2.26,2.56,4.26,2s2.52-2.14,2.5-4.19c-.1-8.7-4.79-16-7.06-24.09Zm-44-538c.88,0,2.65.54,3.28-.08,7-6.82,9.58-13.84,3.6-22-.79-1.07-2.91-1.46-4.44-1.53-.47,0-1.43,2-1.5,3.2C1153.54,72.61,1153.32,79.19,1153,86.49Zm20,494.44c1,2.36,2,5.05,3.17,7.69a9.63,9.63,0,0,0,1.39,2c1.05,1.32,2.37,2.17,4,1.11a25.17,25.17,0,0,0,5.34-4.1c4.93-5.69,4.22-7.12-2.93-9.6C1179.62,576.51,1176,576,1173.06,580.93Zm16.54,10c-5.47,4.11-5.69,2.42-3.65,9.08.39,1.29.74,2.6,1.15,3.89,1.47,4.58,1.88,4.8,6.59,3.68,5.17-1.23,6.61-4.81,3.29-9A100.75,100.75,0,0,0,1189.6,591Zm-69.26-463.2c3.12,0,6.2.12,9.27,0a5.62,5.62,0,0,0,5.56-6.35,14.28,14.28,0,0,0-1.68-5.09c-1.31-2.42-3-2.92-5.13-1.19-3.43,2.74-6.54,5.88-9.71,8.79Zm25.28-26.48,3.47,2.22c2.63-2.78,5.14-5.38,7.59-8,.94-1,1.55-2.4.09-3.26a20.92,20.92,0,0,0-6.15-2.61c-2-.42-3.71.46-3.94,3C1146.42,95.45,1146,98.29,1145.62,101.28Zm2.45,7.88c0-2.49-1.38-4.59-3.5-5-1.59-.27-3.92.79-5.15,2-1.66,1.68-2.65,4.06-3.79,6.22-.69,1.3.79,3.52,2.24,3.35a39.94,39.94,0,0,0,6.14-1.12A6,6,0,0,0,1148.07,109.16Zm44.37,502.78c.44,2.54.84,5,1.31,7.49.3,1.58,1.28,2.19,2.76,1.47,2.17-1.06,4.31-2.2,6.42-3.39,1.33-.76,1.25-1.84.37-3l-3.63-4.64C1197.19,610.61,1195,611.22,1192.44,611.94ZM1061,176.94c2.72-1.6,4.72-4.63,3.69-6.57a6.29,6.29,0,0,0-3.85-3.09c-4.11-.68-3.44,2.94-4,4.91Zm160.67,481.14c-.41-3.51-6.56-7.71-11.44-8.28-.22.91-.45,1.83-.64,2.58C1213.59,654.27,1217.43,656.09,1221.64,658.08ZM1163.24,64.6c2.66-4.24,7.66-6.62,6.21-12.38-1.88,1.07-6.76,7.68-7.16,9.86C1162.19,62.64,1162.73,63.32,1163.24,64.6Zm35.51,601.26,1.24.19c.64-3.47,1.3-6.95,1.85-10.44,0-.19-.87-.52-1.35-.8C1198.87,658.51,1196.84,661.92,1198.75,665.86ZM1147.61,51.54c-1.45,3.44.81,8.7,3.69,9.66a1.17,1.17,0,0,0,.94-.11.9.9,0,0,0,.18-.85C1150.9,57.43,1149.34,54.65,1147.61,51.54Z" transform="translate(101.57 259.21)"/><path d="M796.56,172.82c-7.11-1-9.42-3.33-9.6-9.6-11-.9-20.36-5.3-24.93-15.58-2.5-5.61-6.91-8.3-11-11.79-.46-.39-1.5-.22-2.24-.13-4.25.55-8.47,1-12.6-.7-4.9-2.06-8.24-5.25-8.2-10.61a86.79,86.79,0,0,1-9-2.91c-5.8-2.57-6.11-3.26-6.22-9.38-9.71-2.78-14.15-8.27-10.93-13.51-2.06-1.62-4.14-3.22-6.17-4.88-5.11-4.2-4.76-8.77,1.22-12.25-6.89-6.34-8.68-14.36-7.61-23.41-3.64-1.89-5.49-5.24-6.33-9.14-.21-1,.39-3,1-3.14a4.47,4.47,0,0,1,3.55.9,15.81,15.81,0,0,1,3.11,4.39c1.08,2.05,2.2,3.69,4.92,3.11a5.5,5.5,0,0,1,2,.27c1.62-2.55,3.2-5.06,4.81-7.53.4-.6.83-1.4,1.42-1.6,1.21-.42,2.76-1,3.75-.55.69.31,1.27,2.44.89,3.32A36.13,36.13,0,0,1,704,55.74c-1.63,2.09-2.52,3.84-2.06,6.73.92,5.88,1.13,11.87,1.65,17.91,4.08.87,4.47,1.28,5.1,5.89.19,1.43.29,2.88.44,4.32s.3,2.84.45,4.23c4.2-.12,6.37,1.45,8.26,5.86.75,1.74,1.4,3.51,2.15,5.41,8.37-2.3,11.34,4.34,15.31,9.09a58.78,58.78,0,0,1,5.94-1.4c7.83-1,14.2,3.07,16.49,10.89a7.29,7.29,0,0,0,3.2,4c1.78,1.33,3.49,2.74,5.5,4.33,12.24-3,31.15,12.4,27.79,24.57,2.14,1.25,4.64,2.07,6.14,3.76s1.81,4.12,2.12,6.46c.14.09.3.27.43.26,11.3-1.42,19.84,4,27.67,11.17.27.24.55.72.78.69,4.37-.56,7.07,2.79,10.31,4.62,14.09,7.9,28,16.1,42,24.13a4.55,4.55,0,0,1,2.67,4.51c-.38,35.88-.56,71.76-1,107.64-.32,27.16-.9,54.32-1.38,81.48-.31,18.08-1.15,36.16-.73,54.22.18,7.34-2.12,14-2.66,21.11-.08,1.07-1.86,2.36-3.13,2.92q-25.4,11.24-50.88,22.25c-8.16,3.51-16.46,6.69-24.68,10.08a5.87,5.87,0,0,0-2.65,1.73c-6.29,9.56-15.52,15.74-25.05,21.41-10.4,6.2-21.29,11.4-33.45,13.29a2.35,2.35,0,0,0-1.56,1.4c-2.32,9.91-19.18,22.1-30,19.71-.07,0-.16.07-.24.1-4,7.36-2.74,8.78-14.66,10-1.95,9.56-4.12,12-11.83,13.19,0,1.09.11,2.21.15,3.34a55.93,55.93,0,0,1,.23,7.86c-.41,4.13-2.12,5.29-6.21,4.86-.89-.09-1.77-.21-2.91-.35-.07,4.84,1.53,10-3.34,13.6a3.91,3.91,0,0,0,.19,1c4.17,8.81,2,17.12-1.89,25.35a4.92,4.92,0,0,0-.32,3.36c1.51,4.23,2.69,8.44,1.46,12.94a7.39,7.39,0,0,1-1.12,2.67c-1.17,1.45-2.55,1.2-3.11-.46a68.77,68.77,0,0,1-2.24-8.57c-.75-3.75-1.49-3.74-5-5.06-4.61-1.74-6.68,1.19-9.45,3.45a9.71,9.71,0,0,1-4.41,2.16c-2.17.33-2.86-.86-2.23-3.06,1.18-4.12,4.15-6.4,8-7.77.52-.18,1.25-.39,1.46-.81,2.67-5.32,5.39-10.63,7.81-16.08a35,35,0,0,0,1.9-7.29,2.25,2.25,0,0,0-.79-1.78c-3.82-3.08-4.61-6.34-2.15-10.84a51.34,51.34,0,0,1,4.2-5.72c-2.58-3.44-2.45-5.12,1.18-8.34,2-1.74,4.17-3.2,6.27-4.8,2.4-1.83,4.14-3.7,3.5-7.3-.89-5,1.51-8.74,5.86-11.23,2.08-1.19,3.75-2.1,2.85-5.35-1-3.48,1.08-5.77,4.78-6.63,4.84-1.13,9.72-2.07,14.54-3.25a3.66,3.66,0,0,0,2.21-1.79c4-8.61,10.71-14,19.54-17a3.89,3.89,0,0,1,1.84-.31,6.42,6.42,0,0,1,1.73.95c-.32.5-.51,1.22-1,1.48-1.89,1.07-3.89,2-5.78,3a30.24,30.24,0,0,0-11.74,11.47c-1.31,2.29-2.67,4.9-.85,7.4s4.52,1.83,7.05,1.34c8.15-1.56,17.39-9.23,20-16.72a9.51,9.51,0,0,0-1.42-.56c-7.16-1.64-6.58-8.28-3.86-12.12,12.23-17.28,29.73-27,49-34.2a2,2,0,0,1,.52-.18c6.63-.85,11.25-5.17,16.27-9,3.26-2.5,7.14-4.24,10.85-6.13,6.87-3.49,13.81-6.87,20.74-10.26q11.86-5.81,23.76-11.53a2.85,2.85,0,0,0,2-2.8c.45-10.33,1-20.67,1.53-31,1-19.76,2.09-39.52,3.08-59.28.66-13.15,1.18-26.3,1.84-39.45q1.31-25.69,2.73-51.39c.69-12.59,1.37-25.18,2.17-37.76.34-5.24,1.05-10.45,1.41-15.68a3.25,3.25,0,0,0-1.27-2.52q-15.75-9.71-31.65-19.2a36.83,36.83,0,0,0-6-2.79c-9.33-3.5-15.54-11.18-22.89-17.26C798.47,182.24,797.05,178.29,796.56,172.82ZM835,204.08c5.6,3.19,11.22,6.32,16.78,9.57s11.07,6.6,16.56,10c2.14,1.32,2.1,2.36.33,3.92a3.37,3.37,0,0,0-.9,2.2c-.74,18.23-1.35,36.46-2.16,54.68-.77,17.41-1.75,34.81-2.61,52.22-.8,16-1.53,32.09-2.34,48.14-.64,12.87-1.36,25.74-2,38.61-.52,9.88-1.12,19.75-1.51,29.64-.17,4.21.06,8.43.22,12.65a4.67,4.67,0,0,1-3,4.26,16.33,16.33,0,0,0-3.31,1q-25.67,12.3-51.26,24.68c-2.3,1.11-4.4,2.61-6.42,3.83,2.39.93,5,1.3,6.55,2.76s2,3.91,3,6.1c2.06-1,4.4-2.16,6.79-3.21q33.18-14.46,66.4-28.86c1.43-.62,2.18-1.28,2.12-2.91-.13-3.74-.17-7.49-.16-11.23,0-6.45,0-12.91.16-19.35.65-29.79,1.41-59.58,2-89.37.5-25,.72-50,1.31-74.93.49-20.88,1.35-41.74,2-62.62a3.51,3.51,0,0,0-1-2.65Q858.49,198.49,834.51,184a6.75,6.75,0,0,0-1.25-.41C835.33,190.43,837.69,197,835,204.08ZM736.17,545c2.54-.37,4.37-.51,6.12-.92,20.41-4.78,37.49-15.27,51.87-30.35a17.09,17.09,0,0,0,2.92-4.55c1.28-2.78.42-4.53-2.63-4.77a26.78,26.78,0,0,0-8.08.62c-14.37,3.36-27.16,10.17-38.87,18.92a103.26,103.26,0,0,0-13.59,12.87c-1.24,1.35-1.6,4.09-1.31,6C732.74,543.81,735.22,544.45,736.17,545Zm96.54-347.74-.38-.12c-.06-.91-.05-1.82-.19-2.72-1-6.21-2.49-12.3-8.22-15.89a63.91,63.91,0,0,0-12.17-6,20.65,20.65,0,0,0-8.49-.72c-3.23.28-4.24,2.16-2.48,4.9a71.63,71.63,0,0,0,7.91,9.91,75.81,75.81,0,0,0,7.9,7.06c3.08,2.51,6.31,4.84,9.5,7.22,1.62,1.21,3.68,2,5.24.64C832.31,200.71,832.29,198.71,832.71,197.24Zm-69.19-55.09a12.08,12.08,0,0,0,.63,2.45,24.87,24.87,0,0,0,18.3,15.19c5.49,1.17,10.52-1.45,8.27-8.31-2.68-8.17-13.59-15.87-21.81-15.46C765.25,136.2,763.59,137.88,763.52,142.15Zm-15.19-9-.29-.74c1.39-1.34,2.59-3,4.21-3.95,2.11-1.28,2.28-2.39,1.16-4.51-4.23-8.08-12.45-8.28-18.95-3.94-4.36,2.9-4.25,6.82,0,10.07S743.38,133.55,748.33,133.13ZM702.76,562.91c-5.1,1.17-10,2.26-14.93,3.43-2.47.59-3.24,2.18-2.16,4.18,2.34,4.37,8.36,6.92,13.16,5.86,3.38-.74,4.28-3.51,5.79-6,1.19-1.93-.23-3-.85-4.37A28.91,28.91,0,0,1,702.76,562.91Zm-33.6,71.33c-.87-3.2-1.53-5.91-2.37-8.57-.18-.6-1-1-1.49-1.5a9.78,9.78,0,0,0-1.07,1.84c-1.2,3.86-2.08,7.83-3.55,11.57-1.24,3.17-3.19,6-4.71,9.12-.48,1-1.09,2.42-.69,3.13s1.94,1.27,3,1.3c3.2.09,6.1-1,7.24-4.2C667,642.71,668,638.32,669.16,634.24ZM699.59,81.41a7.17,7.17,0,0,0,.64-2.1c-.32-6-.61-11.93-1.15-17.88a6,6,0,0,0-1.83-3.77,5,5,0,0,0-3.9-.88c-.78.2-1.53,1.91-1.64,3a29,29,0,0,0,.25,5.95C692.66,71.67,695.53,76.6,699.59,81.41ZM684.47,574.19c-2.11,2-4.26,3.76-6.16,5.79-2.6,2.79-1.86,8.13,1.17,9.41s7.68-.29,9.43-3.39c2.18-3.88,1.74-6.74-1.38-9.21C686.47,576,685.46,575,684.47,574.19Zm-9,16.82c-1.74,5.72-8,7.4-11,12.2,4.17,3,9,2.47,13.61,3.11.29,0,1.06-1,1-1.56-.05-2.7-.54-5.41-.41-8.09S678.11,592.13,675.44,591Zm52.4-468.89,4.14-4.7a66.33,66.33,0,0,0-4.28-5.58c-3.83-4.08-5.7-3.38-10-.22-2.63,1.91-2.39,4.2.45,5.79C721.3,119.2,724.69,120.61,727.84,122.12ZM706.13,96.78c-.18-2.78-.26-4.67-.44-6.54-.79-8.16.74-7.21-7.38-5.95-3.86.61-4.76,3.66-1.95,6.47a51.16,51.16,0,0,0,6.44,5.4C703.6,96.73,704.92,96.58,706.13,96.78Zm4.57.46c-2.08,1.09-4.26,2.12-6.27,3.4-.39.25-.47,1.59-.19,2.2,1.87,4,5.41,6,9.54,6.68.84.14,3-2,2.86-2.43a74.27,74.27,0,0,0-4.07-8.73C712.34,97.92,711.59,97.75,710.7,97.24ZM669.84,608.49c-1.57.19-3.15-.09-3.73.54a26.29,26.29,0,0,0-4.5,6.32c-1.39,3-.67,4.13,2.09,4.84,3,.77,5.85-.56,6.08-3.11S669.84,611.73,669.84,608.49ZM794,161.63c-3,0-4.83,1.18-4.78,3.14.07,2.72,3,5.17,6.24,5.12,2.59,0,4.15-1.38,4.14-3.57C799.58,163.75,797,161.61,794,161.63Zm-127.09,507c2.85-4.43,2.23-12.39-.74-16.3l-3,1.69C664.38,658.9,665.57,663.48,666.9,668.65Zm93.55-530.1c.65-2,1.14-3.49,1.6-4.92-5.35-4.65-6.66-4.8-10.35-.73ZM653.13,652.8c-1.58-2.45-2-2.6-3.9-1.87-3.7,1.4-6,4.64-5.42,8C648.19,658.75,649.53,654.23,653.13,652.8ZM700.48,57c2.19-3.46,6.49-5.62,5.86-10.76C702.43,48,698.52,54.91,700.48,57Zm-10.05-.31a8.81,8.81,0,0,0-.35-2.86,42.7,42.7,0,0,0-3.21-5.3,9.5,9.5,0,0,0-2-1.68C684.8,51.15,686.66,54.24,690.43,56.66Z" transform="translate(101.57 259.21)"/><path class="cls-1" d="M1064.92,513.71,969.6,484.05V222.83a40.05,40.05,0,0,0,4.74-2.51q21.42-15,42.78-30.08c.59-.41,1.19-.79,1.76-1.17-.28,4.21-1,8.35-.71,12.42s1.46,8.09,2.27,12.29c-8.79,5.79-18.15,12-27.56,18.12a3.93,3.93,0,0,0-2.09,3.74c.36,22.53.62,45.05,1,67.57q.32,20.85.84,41.69c.88,34.69,1.86,69.37,2.7,104.06.1,4.06.75,6.76,5.08,9.05,20.61,10.9,40.86,22.49,61.36,33.62,2.44,1.33,4.42,2.54,5.82,5,.67,1.19,2.54,2.07,4,2.39,14,3,27.4,7.73,38.41,17,7.69,6.48,16.49,12.08,21.54,21.3a18.1,18.1,0,0,1,1.69,4.52,2.19,2.19,0,0,1-1,1.9c-1.57.59-3.35,1.4-4.88,1.13a40.27,40.27,0,0,1-10.14-2.83,174.64,174.64,0,0,1-31.37-19c-3.53-2.67-6.58-6-9.89-8.94a37.55,37.55,0,0,0-3.23-2.5C1068.68,508.76,1066.76,509.27,1064.92,513.71Z" transform="translate(101.57 259.21)"/><path class="cls-1" d="M1022.63,199c.53-2.9.94-6.13,1.73-9.27.71-2.81,1.68-5.53,5.63-5.11,1.13.11,2.37-.75,3.55-1.22,5.28-2.1,10.48-4.42,15.86-6.23,1.87-.63,4.84-.87,6.09.18,2,1.63,0,4-1,5.88-4.08,8.13-10.18,14.49-17.57,19.68-3.11,2.18-6.25,4.34-9.42,6.44-1.73,1.15-3.1,1-3.48-1.38C1023.57,205.16,1023.14,202.3,1022.63,199Z" transform="translate(101.57 259.21)"/><path class="cls-1" d="M1128.21,549.72c4.34-.81,7.72-2.41,9.19-7.37,4.91,2.19,9.95,4,14.5,6.6,3.6,2.08,5,5.88,4.27,10.15a7.36,7.36,0,0,1-6.46,6.4c-8.7,1.48-19.07-5.06-21.33-13.5A12.93,12.93,0,0,1,1128.21,549.72Z" transform="translate(101.57 259.21)"/><path class="cls-1" d="M1070.39,170.33c-2.73-2.54-4.76-4.33-6.66-6.25-.76-.78-1.9-2-1.71-2.75.59-2.18,1.31-4.62,2.78-6.22,4.39-4.77,10.26-7.39,16.25-9.5,4.25-1.49,6,0,6.35,4.55.29,4-1.36,7.52-3.42,10.7C1080.57,166.13,1076.14,170.14,1070.39,170.33Z" transform="translate(101.57 259.21)"/><path class="cls-1" d="M1091.29,147l-2.22-4.17c3-2.37,6.13-4.61,9-7.22a106.76,106.76,0,0,0,9-9.39c1.66-1.94,3.66-3.22,5.85-2.49a6.5,6.5,0,0,1,3.44,4,26.8,26.8,0,0,1,.78,8.83,5.89,5.89,0,0,1-2.81,3.93,22,22,0,0,1-13.87,2.83A9.45,9.45,0,0,0,1091.29,147Z" transform="translate(101.57 259.21)"/><path class="cls-1" d="M1157.51,567.24c1.21-5.81,4.57-5.8,8.75-4.36,2.29.79,4.8.91,7.11,1.64,3.65,1.15,4.42,4.12,2.08,7.11-.9,1.15-1.46,2.61-2.5,3.58-3.1,2.89-8.66,3.2-11.36-1.41C1160.22,571.46,1158.73,569.2,1157.51,567.24Z" transform="translate(101.57 259.21)"/><path class="cls-1" d="M1197,624.5l2.83-.57c2.27,8.13,7,15.39,7.06,24.09,0,2.05-.36,3.57-2.5,4.19s-3.19-.38-4.26-2a20.53,20.53,0,0,1-3.09-11.06C1196.9,634.37,1197,629.57,1197,624.5Z" transform="translate(101.57 259.21)"/><path class="cls-1" d="M1153,86.49c.31-7.3.53-13.88.94-20.45.07-1.15,1-3.22,1.5-3.2,1.53.07,3.65.46,4.44,1.53,6,8.2,3.39,15.22-3.6,22C1155.66,87,1153.89,86.49,1153,86.49Z" transform="translate(101.57 259.21)"/><path class="cls-1" d="M1173.06,580.93c3-4.92,6.56-4.42,11-2.89,7.15,2.48,7.86,3.91,2.93,9.6a25.17,25.17,0,0,1-5.34,4.1c-1.61,1.06-2.93.21-4-1.11a9.63,9.63,0,0,1-1.39-2C1175.08,586,1174,583.29,1173.06,580.93Z" transform="translate(101.57 259.21)"/><path class="cls-1" d="M1189.6,591a100.75,100.75,0,0,1,7.38,7.65c3.32,4.19,1.88,7.77-3.29,9-4.71,1.12-5.12.9-6.59-3.68-.41-1.29-.76-2.6-1.15-3.89C1183.91,593.38,1184.13,595.07,1189.6,591Z" transform="translate(101.57 259.21)"/><path class="cls-1" d="M1120.34,127.76l-1.69-3.87c3.17-2.91,6.28-6,9.71-8.79,2.15-1.73,3.82-1.23,5.13,1.19a14.28,14.28,0,0,1,1.68,5.09,5.62,5.62,0,0,1-5.56,6.35C1126.54,127.88,1123.46,127.76,1120.34,127.76Z" transform="translate(101.57 259.21)"/><path class="cls-1" d="M1145.62,101.28c.37-3,.8-5.83,1.06-8.7.23-2.53,2-3.41,3.94-3a20.92,20.92,0,0,1,6.15,2.61c1.46.86.85,2.24-.09,3.26-2.45,2.66-5,5.26-7.59,8Z" transform="translate(101.57 259.21)"/><path class="cls-1" d="M1148.07,109.16a6,6,0,0,1-4.06,5.52,39.94,39.94,0,0,1-6.14,1.12c-1.45.17-2.93-2-2.24-3.35,1.14-2.16,2.13-4.54,3.79-6.22,1.23-1.24,3.56-2.3,5.15-2C1146.69,104.57,1148,106.67,1148.07,109.16Z" transform="translate(101.57 259.21)"/><path class="cls-1" d="M1192.44,611.94c2.6-.72,4.75-1.33,7.23-2l3.63,4.64c.88,1.12,1,2.2-.37,3-2.11,1.19-4.25,2.33-6.42,3.39-1.48.72-2.46.11-2.76-1.47C1193.28,617,1192.88,614.48,1192.44,611.94Z" transform="translate(101.57 259.21)"/><path class="cls-1" d="M1061,176.94l-4.16-4.75c.56-2-.11-5.59,4-4.91a6.29,6.29,0,0,1,3.85,3.09C1065.69,172.31,1063.69,175.34,1061,176.94Z" transform="translate(101.57 259.21)"/><path class="cls-1" d="M1221.64,658.08c-4.21-2-8.05-3.81-12.08-5.7.19-.75.42-1.67.64-2.58C1215.08,650.37,1221.23,654.57,1221.64,658.08Z" transform="translate(101.57 259.21)"/><path class="cls-1" d="M1163.24,64.6c-.51-1.28-1-2-1-2.52.4-2.18,5.28-8.79,7.16-9.86C1170.9,58,1165.9,60.36,1163.24,64.6Z" transform="translate(101.57 259.21)"/><path class="cls-1" d="M1198.75,665.86c-1.91-3.94.12-7.35,1.74-11.05.48.28,1.38.61,1.35.8-.55,3.49-1.21,7-1.85,10.44Z" transform="translate(101.57 259.21)"/><path class="cls-1" d="M1147.61,51.54c1.73,3.11,3.29,5.89,4.81,8.7a.9.9,0,0,1-.18.85,1.17,1.17,0,0,1-.94.11C1148.42,60.24,1146.16,55,1147.61,51.54Z" transform="translate(101.57 259.21)"/><path class="cls-1" d="M835,204.08c2.74-7.12.38-13.65-1.69-20.54a6.75,6.75,0,0,1,1.25.41q23.94,14.6,47.84,29.27a3.51,3.51,0,0,1,1,2.65c-.63,20.88-1.49,41.74-2,62.62-.59,25-.81,50-1.31,74.93-.61,29.79-1.37,59.58-2,89.37-.15,6.44-.15,12.9-.16,19.35,0,3.74,0,7.49.16,11.23.06,1.63-.69,2.29-2.12,2.91q-33.23,14.37-66.4,28.86c-2.39,1.05-4.73,2.24-6.79,3.21-1-2.19-1.46-4.71-3-6.1s-4.16-1.83-6.55-2.76c2-1.22,4.12-2.72,6.42-3.83q25.59-12.41,51.26-24.68a16.33,16.33,0,0,1,3.31-1,4.67,4.67,0,0,0,3-4.26c-.16-4.22-.39-8.44-.22-12.65.39-9.89,1-19.76,1.51-29.64.68-12.87,1.4-25.74,2-38.61.81-16,1.54-32.1,2.34-48.14.86-17.41,1.84-34.81,2.61-52.22.81-18.22,1.42-36.45,2.16-54.68a3.37,3.37,0,0,1,.9-2.2c1.77-1.56,1.81-2.6-.33-3.92-5.49-3.37-11-6.71-16.56-10S840.55,207.27,835,204.08Z" transform="translate(101.57 259.21)"/><path class="cls-1" d="M736.17,545c-.95-.53-3.43-1.17-3.57-2.15-.29-1.94.07-4.68,1.31-6a103.26,103.26,0,0,1,13.59-12.87c11.71-8.75,24.5-15.56,38.87-18.92a26.78,26.78,0,0,1,8.08-.62c3,.24,3.91,2,2.63,4.77a17.09,17.09,0,0,1-2.92,4.55c-14.38,15.08-31.46,25.57-51.87,30.35C740.54,544.47,738.71,544.61,736.17,545Z" transform="translate(101.57 259.21)"/><path class="cls-1" d="M832.71,197.24c-.42,1.47-.4,3.47-1.38,4.3-1.56,1.32-3.62.57-5.24-.64-3.19-2.38-6.42-4.71-9.5-7.22a75.81,75.81,0,0,1-7.9-7.06,71.63,71.63,0,0,1-7.91-9.91c-1.76-2.74-.75-4.62,2.48-4.9a20.65,20.65,0,0,1,8.49.72,63.91,63.91,0,0,1,12.17,6c5.73,3.59,7.24,9.68,8.22,15.89.14.9.13,1.81.19,2.72Z" transform="translate(101.57 259.21)"/><path class="cls-1" d="M763.52,142.15c.07-4.27,1.73-6,5.39-6.13,8.22-.41,19.13,7.29,21.81,15.46,2.25,6.86-2.78,9.48-8.27,8.31a24.87,24.87,0,0,1-18.3-15.19A12.08,12.08,0,0,1,763.52,142.15Z" transform="translate(101.57 259.21)"/><path class="cls-1" d="M748.33,133.13c-5,.42-9.75.13-13.91-3.07s-4.32-7.17,0-10.07c6.5-4.34,14.72-4.14,18.95,3.94,1.12,2.12,1,3.23-1.16,4.51-1.62,1-2.82,2.61-4.21,3.95Z" transform="translate(101.57 259.21)"/><path class="cls-1" d="M702.76,562.91a28.91,28.91,0,0,0,1,3.14c.62,1.4,2,2.44.85,4.37-1.51,2.45-2.41,5.22-5.79,6-4.8,1.06-10.82-1.49-13.16-5.86-1.08-2-.31-3.59,2.16-4.18C692.73,565.17,697.66,564.08,702.76,562.91Z" transform="translate(101.57 259.21)"/><path class="cls-1" d="M669.16,634.24c-1.15,4.08-2.14,8.47-3.64,12.69-1.14,3.17-4,4.29-7.24,4.2-1.06,0-2.57-.53-3-1.3s.21-2.16.69-3.13c1.52-3.07,3.47-6,4.71-9.12,1.47-3.74,2.35-7.71,3.55-11.57a9.78,9.78,0,0,1,1.07-1.84c.51.5,1.31.9,1.49,1.5C667.63,628.33,668.29,631,669.16,634.24Z" transform="translate(101.57 259.21)"/><path class="cls-1" d="M699.59,81.41c-4.06-4.81-6.93-9.74-7.63-15.67a29,29,0,0,1-.25-5.95c.11-1.1.86-2.81,1.64-3a5,5,0,0,1,3.9.88,6,6,0,0,1,1.83,3.77c.54,5.95.83,11.92,1.15,17.88A7.17,7.17,0,0,1,699.59,81.41Z" transform="translate(101.57 259.21)"/><path class="cls-1" d="M684.47,574.19c1,.84,2,1.76,3.06,2.6,3.12,2.47,3.56,5.33,1.38,9.21-1.75,3.1-6.28,4.74-9.43,3.39s-3.77-6.62-1.17-9.41C680.21,578,682.36,576.16,684.47,574.19Z" transform="translate(101.57 259.21)"/><path class="cls-1" d="M675.44,591c2.67,1.12,3.36,3,3.23,5.66s.36,5.39.41,8.09c0,.54-.75,1.6-1,1.56-4.57-.64-9.44-.11-13.61-3.11C667.42,598.41,673.7,596.73,675.44,591Z" transform="translate(101.57 259.21)"/><path class="cls-1" d="M727.84,122.12c-3.15-1.51-6.54-2.92-9.73-4.71-2.84-1.59-3.08-3.88-.45-5.79,4.34-3.16,6.21-3.86,10,.22a66.33,66.33,0,0,1,4.28,5.58Z" transform="translate(101.57 259.21)"/><path class="cls-1" d="M706.13,96.78c-1.21-.2-2.53,0-3.33-.62a51.16,51.16,0,0,1-6.44-5.4c-2.81-2.81-1.91-5.86,1.95-6.47,8.12-1.26,6.59-2.21,7.38,5.95C705.87,92.11,706,94,706.13,96.78Z" transform="translate(101.57 259.21)"/><path class="cls-1" d="M710.7,97.24c.89.51,1.64.68,1.87,1.12a74.27,74.27,0,0,1,4.07,8.73c.16.45-2,2.57-2.86,2.43-4.13-.7-7.67-2.64-9.54-6.68-.28-.61-.2-2,.19-2.2C706.44,99.36,708.62,98.33,710.7,97.24Z" transform="translate(101.57 259.21)"/><path class="cls-1" d="M669.84,608.49c0,3.24.19,5.94-.06,8.59s-3.11,3.88-6.08,3.11c-2.76-.71-3.48-1.88-2.09-4.84a26.29,26.29,0,0,1,4.5-6.32C666.69,608.4,668.27,608.68,669.84,608.49Z" transform="translate(101.57 259.21)"/><path class="cls-1" d="M794,161.63c3,0,5.59,2.12,5.6,4.69,0,2.19-1.55,3.53-4.14,3.57-3.19.05-6.17-2.4-6.24-5.12C789.16,162.81,790.94,161.64,794,161.63Z" transform="translate(101.57 259.21)"/><path class="cls-1" d="M666.9,668.65c-1.33-5.17-2.52-9.75-3.78-14.61l3-1.69C669.13,656.26,669.75,664.22,666.9,668.65Z" transform="translate(101.57 259.21)"/><path class="cls-1" d="M760.45,138.55l-8.75-5.65c3.69-4.07,5-3.92,10.35.73C761.59,135.06,761.1,136.57,760.45,138.55Z" transform="translate(101.57 259.21)"/><path class="cls-1" d="M653.13,652.8c-3.6,1.43-4.94,6-9.32,6.16-.54-3.39,1.72-6.63,5.42-8C651.15,650.2,651.55,650.35,653.13,652.8Z" transform="translate(101.57 259.21)"/><path class="cls-1" d="M700.48,57c-2-2.06,1.95-9,5.86-10.76C707,51.35,702.67,53.51,700.48,57Z" transform="translate(101.57 259.21)"/><path class="cls-1" d="M690.43,56.66c-3.77-2.42-5.63-5.51-5.53-9.84a9.5,9.5,0,0,1,2,1.68,42.7,42.7,0,0,1,3.21,5.3A8.81,8.81,0,0,1,690.43,56.66Z" transform="translate(101.57 259.21)"/><path class="cls-1" d="M1354.91,1140.55H517.64V683.45h837.27ZM682.38,773.17c4.17,3.29,5.46,3.21,9-.9,1.83-2.14,3.48-4.43,5.17-6.68.83-1.1,1.56-1.66,3.15-1.1a7.72,7.72,0,0,0,8.36-1.81,62,62,0,0,0,6.47-8.28c.82-1.2,1.3-1.83,2.93-1.39,2.59.69,4.91-.11,7.11-1.76,3.4-2.54,7-4.81,9.89-6.78a50.37,50.37,0,0,0,6.18,2.41c4.11,1,8-.1,11.5-2.2,4.76-2.82,9.42-5.8,14.13-8.71,3.44-2.13,6.87-3.74,10.66-.63a14.08,14.08,0,0,0,2.87,1.54c9.7,4.79,20.28,6.27,30.78,7.66,5.4.71,11-.27,16.54-.35,8.91-.13,17.81-.11,26.72-.21l99.24-1.08c21.35-.22,42.71-.33,64.07-.61,11-.15,22-.57,33-.87,2.4-.06,4.81-.31,7.19-.14,2,.15,4.06,1.23,6,1.11a98.38,98.38,0,0,0,13.46-1.66c7.56-1.51,15.12-3.18,21.32-8.3a4.07,4.07,0,0,1,2.31-.36c7.25-.1,12.56,3.81,17.83,8.22a29.71,29.71,0,0,0,9.82,5.44c3.85,1.23,8.29,1.63,11.65-1.42,2-1.85,3.4-1.39,5.14-.06,2.88,2.22,5.65,4.62,8.71,6.54a11,11,0,0,0,6,1.92c3.09-.19,5.17.64,6.71,3.24a18.06,18.06,0,0,0,1.92,2.29c1.84,2.19,4.28,4.12,7,3.59,4.15-.82,5.79,1.45,7.46,4.31a15.7,15.7,0,0,0,1.61,2.2c4.18,4.94,6.64,5.49,12.45,2.84,8.48,7.18,10.17,7.39,15.22,1.91,8.74,1.54,17.33,2.08,25.57-2.11.69-.36,1.74-.05,2.62,0,3.42.26,6.83.76,10.25.74,2.06,0,4.35-.4,5.47-3.33a17.59,17.59,0,0,0-3-.92c-3.4-.43-6.84-.64-10.23-1.15-2.1-.31-3.84-5.37-2.53-7.1,1.92-2.52,3.92-5,5.89-7.45,1.17-1.46,1.42-3,.06-4.39s-3-.42-4,.71c-2.46,2.84-4.68,5.88-7,8.81a5.22,5.22,0,0,1-1.81,1.67c-4.28,1.63-8.63,3.09-12.93,4.71-2.14.8-4.21,1.81-6.37,2.75-.94-4.15-.92-4.36-4.78-4.82a75.6,75.6,0,0,0-8.77-.07c-2-7.85-9.16-5.81-14.22-7.66-.92-8-6.79-10.54-17.5-9.76-5-10.84-14.65-9.58-23.92-9.44-1.06-4.15-3.42-7.16-7.77-8.15-5.9-1.35-11.81-2.75-17.76-3.85-4.4-.82-8.6-1.84-12.49-4.24-2-1.23-4.53-1.54-6.82-2.28-.4-.13-.91-.18-1.17-.46-2-2.23-4.71-2.47-7.49-2.49-13.85-.11-26.46,4.36-38.69,10.35a10.77,10.77,0,0,1-4.64,1c-5.17,0-10.34-.47-15.51-.48q-75,0-150,0-25.9,0-51.82,0c-1,0-2.48-.24-2.83-.88-2.57-4.64-6.91-6.91-11.64-7.75a114.28,114.28,0,0,0-20-1.94c-7.42,0-14.85,1-21.71,4.32-2.23,1.07-4.42,2.19-6.64,3.27a5.8,5.8,0,0,1-2.29,1c-8.84-.21-17.71-.5-25.82,3.81a15.73,15.73,0,0,0-5.22,4.86c-.86,1.23-1.44,1.73-2.9,1.65-4.89-.29-9.79-.55-14.69-.61-4.28,0-7.13,2.89-7.18,7.19a36.77,36.77,0,0,0,.39,4.16c-12.15.55-15.56,2.76-17.27,11.2a68.39,68.39,0,0,0-6.92,1c-3.85.95-8.41,1-9.18,6.33-4.83.39-10.15-1.39-13,4.42-6.83-2.82-13.49-5.56-20.15-8.32-.21-.09-.34-.38-.5-.59-1.48-1.94-2.89-3.92-4.45-5.8a7.86,7.86,0,0,0-2.64-2.28,15.76,15.76,0,0,0-3.81-.71c-.15,1.29-.82,2.84-.34,3.83a82.39,82.39,0,0,0,4.79,7.84l-1,6.14a82.2,82.2,0,0,0-8.87.1,4.74,4.74,0,0,0-3.23,2.22c-.84,1.73.6,3,2.15,3.41,2.34.63,4.88,1.53,7.15,1.17,4.81-.78,8.93.28,13.29,2.24,5.65,2.53,11.71,2.06,17.62.34,1.61-.47,3-.59,4.37.9a5.1,5.1,0,0,0,6.29.94C677,775.88,679.62,774.55,682.38,773.17Z" transform="translate(101.57 259.21)"/><path d="M682.38,773.17c-2.76,1.38-5.34,2.71-7.94,4a5.1,5.1,0,0,1-6.29-.94c-1.4-1.49-2.76-1.37-4.37-.9-5.91,1.72-12,2.19-17.62-.34-4.36-2-8.48-3-13.29-2.24-2.27.36-4.81-.54-7.15-1.17-1.55-.42-3-1.68-2.15-3.41a4.74,4.74,0,0,1,3.23-2.22,82.2,82.2,0,0,1,8.87-.1l1-6.14a82.39,82.39,0,0,1-4.79-7.84c-.48-1,.19-2.54.34-3.83a15.76,15.76,0,0,1,3.81.71,7.86,7.86,0,0,1,2.64,2.28c1.56,1.88,3,3.86,4.45,5.8.16.21.29.5.5.59,6.66,2.76,13.32,5.5,20.15,8.32,2.8-5.81,8.12-4,13-4.42.77-5.31,5.33-5.38,9.18-6.33a68.39,68.39,0,0,1,6.92-1c1.71-8.44,5.12-10.65,17.27-11.2a36.77,36.77,0,0,1-.39-4.16c0-4.3,2.9-7.24,7.18-7.19,4.9.06,9.8.32,14.69.61,1.46.08,2-.42,2.9-1.65a15.73,15.73,0,0,1,5.22-4.86c8.11-4.31,17-4,25.82-3.81a5.8,5.8,0,0,0,2.29-1c2.22-1.08,4.41-2.2,6.64-3.27,6.86-3.3,14.29-4.33,21.71-4.32a114.28,114.28,0,0,1,20,1.94c4.73.84,9.07,3.11,11.64,7.75.35.64,1.86.88,2.83.88q25.92.08,51.82,0,75,0,150,0c5.17,0,10.34.44,15.51.48a10.77,10.77,0,0,0,4.64-1c12.23-6,24.84-10.46,38.69-10.35,2.78,0,5.45.26,7.49,2.49.26.28.77.33,1.17.46,2.29.74,4.84,1.05,6.82,2.28,3.89,2.4,8.09,3.42,12.49,4.24,5.95,1.1,11.86,2.5,17.76,3.85,4.35,1,6.71,4,7.77,8.15,9.27-.14,18.89-1.4,23.92,9.44,10.71-.78,16.58,1.74,17.5,9.76,5.06,1.85,12.18-.19,14.22,7.66a75.6,75.6,0,0,1,8.77.07c3.86.46,3.84.67,4.78,4.82,2.16-.94,4.23-1.95,6.37-2.75,4.3-1.62,8.65-3.08,12.93-4.71a5.22,5.22,0,0,0,1.81-1.67c2.35-2.93,4.57-6,7-8.81,1-1.13,2.52-2.17,4-.71s1.11,2.93-.06,4.39c-2,2.47-4,4.93-5.89,7.45-1.31,1.73.43,6.79,2.53,7.1,3.39.51,6.83.72,10.23,1.15a17.59,17.59,0,0,1,3,.92c-1.12,2.93-3.41,3.32-5.47,3.33-3.42,0-6.83-.48-10.25-.74-.88-.06-1.93-.37-2.62,0-8.24,4.19-16.83,3.65-25.57,2.11-5,5.48-6.74,5.27-15.22-1.91-5.81,2.65-8.27,2.1-12.45-2.84a15.7,15.7,0,0,1-1.61-2.2c-1.67-2.86-3.31-5.13-7.46-4.31-2.7.53-5.14-1.4-7-3.59a18.06,18.06,0,0,1-1.92-2.29c-1.54-2.6-3.62-3.43-6.71-3.24a11,11,0,0,1-6-1.92c-3.06-1.92-5.83-4.32-8.71-6.54-1.74-1.33-3.1-1.79-5.14.06-3.36,3.05-7.8,2.65-11.65,1.42a29.71,29.71,0,0,1-9.82-5.44c-5.27-4.41-10.58-8.32-17.83-8.22a4.07,4.07,0,0,0-2.31.36c-6.2,5.12-13.76,6.79-21.32,8.3a98.38,98.38,0,0,1-13.46,1.66c-2,.12-4-1-6-1.11-2.38-.17-4.79.08-7.19.14-11,.3-22,.72-33,.87-21.36.28-42.72.39-64.07.61L853.84,744c-8.91.1-17.81.08-26.72.21-5.52.08-11.14,1.06-16.54.35-10.5-1.39-21.08-2.87-30.78-7.66a14.08,14.08,0,0,1-2.87-1.54c-3.79-3.11-7.22-1.5-10.66.63-4.71,2.91-9.37,5.89-14.13,8.71-3.53,2.1-7.39,3.18-11.5,2.2a50.37,50.37,0,0,1-6.18-2.41c-2.89,2-6.49,4.24-9.89,6.78-2.2,1.65-4.52,2.45-7.11,1.76-1.63-.44-2.11.19-2.93,1.39a62,62,0,0,1-6.47,8.28,7.72,7.72,0,0,1-8.36,1.81c-1.59-.56-2.32,0-3.15,1.1-1.69,2.25-3.34,4.54-5.17,6.68C687.84,776.38,686.55,776.46,682.38,773.17Zm144.16-33,226.26-2.31c-1.15-3.13-2.51-6.86-3.91-10.69H829.6C830.21,731.85,830.53,736.39,826.54,740.15Zm-28.85-23.46a63,63,0,0,0-23.11,3.77c-3.09,1.17-3.56,2.33-2,5.35,1.82,3.51,4.95,5.48,8.33,7.13,11,5.35,22.85,6.83,34.8,7.78,3.94.31,9.73-3.93,10.39-7.41.86-4.48-.49-9.59-5.32-12.31C813.89,717.14,806.47,716.69,797.69,716.69Zm290.07-1.16c-1,.09-2.83.21-4.62.44-9.15,1.13-17.7,4.28-26.17,7.76-4.76,2-4.84,1.78-3.69,6.8,1.26,5.49,5.68,9.36,11.19,8.92a85.19,85.19,0,0,0,15.48-2.63,79.24,79.24,0,0,0,14.57-5.63,8.19,8.19,0,0,0,3.74-5.42c.86-6.08-.75-11-8.61-10.24C1089.29,715.56,1088.92,715.53,1087.76,715.53ZM1101,728.79c1.71.23,3.49.41,5.26.71,6.15,1,10.52,5,14.83,9.09a18.05,18.05,0,0,0,12,4.86c4.8.25,7.82-4.09,8.4-7.38s-1.32-5.74-5.84-7.25a23.39,23.39,0,0,0-2.62-.67c-5.33-1.06-10.65-2.14-16-3.15-3.95-.76-7.72-1.82-11-4.32a36.52,36.52,0,0,0-5.06-2.75ZM767,724.5c-4.09.43-8.27.6-12.34,1.37a77.12,77.12,0,0,0-13.28,3.54c-3.64,1.41-4.89,8.89-2.33,11.89a3.72,3.72,0,0,0,2.76,1.35c2.63-.39,5.45-.73,7.74-1.95,6.73-3.59,13.25-7.59,19.92-11.47C768.82,728,768,726.35,767,724.5ZM664.37,771.64c.36-3.11-1.06-4.19-3.92-4.86-3.47-.8-6.73-2.53-10.09-3.83a55.9,55.9,0,0,0-8.05-2.93,2.9,2.9,0,0,0-3.41,4.1c1.32,3,2.81,6.09,6.31,7.43A25.85,25.85,0,0,0,664.37,771.64ZM733,735.44c-5.19,0-10.52,0-15.84,0-2.66,0-4,1.35-3.42,3.91a40.59,40.59,0,0,0,3,8.07c1,2.05,2.84,2,4.61.9,2.88-1.87,5.6-4,8.6-5.66S734.32,738.93,733,735.44Zm410.62,4.31c2.1,1.44,4.08,2.72,6,4.11s3.85,3,5.83,4.47c4.24,3.08,8.68,1.79,9.86-2.81.62-2.43-.77-4.84-3.57-6.28-5.42-2.8-11.2-3.27-17.17-2.72C1144.17,737.67,1143.86,738.78,1143.58,739.75ZM708.85,745.3c-2.85.83-5.87,1.31-8.48,2.6a8.52,8.52,0,0,0-3.6,4.34c-1,2.72,1.08,7.32,3.39,8.47s4.64.57,7.12-2.72a53.48,53.48,0,0,0,4.88-8.4C713,747.88,711,745.57,708.85,745.3Zm459.4.52a39.67,39.67,0,0,0-1.63,3.75,2.38,2.38,0,0,0,.11,1.9,59.85,59.85,0,0,0,5.28,6.17c2,1.94,5.89,2.07,8.4.59a5,5,0,0,0,2.59-5.75c-.86-3.49-3.65-5-6.92-5.67C1173.52,746.32,1170.9,746.14,1168.25,745.82Zm44.45,23.9c4.44,1.77,13.51,1.73,19,.11a21.86,21.86,0,0,0,4-1.51c2.15-1.15,2.18-3.24,1.67-5.24s-2.28-1.81-3.8-1.58a24.48,24.48,0,0,0-4.46,1.12q-7.38,2.63-14.7,5.43C1213.88,768.28,1213.45,769,1212.7,769.72Zm-30.13-9.22c2,2.53,3.9,5.37,6.21,7.87,2,2.16,4.6,2,6.23-.46a14.57,14.57,0,0,0,2.34-6.09,4.33,4.33,0,0,0-2.18-3.47,77,77,0,0,0-9-2.59Zm-489.63-3.9c-3.24.77-6.43,1.41-9.55,2.3s-3.2,1.4-1.73,4.35c.52,1,.74,2.24,1.29,3.26,1,1.92,2.2,3.77,3.7,6.3,2.38-3.31,4.05-6.1,6.19-8.48C695.19,761.69,695.11,759.32,692.94,756.6ZM680,770.36c-.65-1.82-1.14-3.46-1.86-5a2.35,2.35,0,0,0-1.66-1.22,37.8,37.8,0,0,0-6.19.48c-3.08.52-3.62,1.47-2.82,4.47a11.06,11.06,0,0,0,1,2.76c1.77,3.1,3,3.45,6.15,1.72C676.48,772.59,678.2,771.46,680,770.36Zm520.35-6.28c-.64,1.62-1.87,3.19-1.58,4.4s1.82,2.73,3.15,3.5c1.67,1,4.33,2.4,5.43,1.74,3.3-2,3.77-5.64,3.39-9.64Zm-561.53,7.13c-.68-3-1.9-4.07-4.36-3.83-2.15.21-4.34-.06-6.49.11a12.2,12.2,0,0,0-3,1.11c.92.71,1.79,1.91,2.78,2C631.35,771,635,771,638.84,771.21Zm596.71-13.63.62,1.2c.9-.13,2.16.07,2.65-.45a87.62,87.62,0,0,0,6-7.27c.45-.6.22-1.7.3-2.57-.88.24-2.07.18-2.58.74C1240.14,751.93,1237.88,754.78,1235.55,757.58ZM633,749c.13,5.86,4.21,9.53,8.35,7.63C638.51,754.19,637.41,750,633,749Zm620.73,19.91-13.5-1.38-.9,1.93C1244.29,770.36,1249.07,771.69,1253.71,768.92Z" transform="translate(101.57 259.21)"/><path class="cls-1" d="M826.54,740.15c4-3.76,3.67-8.3,3.06-13h219.29c1.4,3.83,2.76,7.56,3.91,10.69Z" transform="translate(101.57 259.21)"/><path class="cls-1" d="M797.69,716.69c8.78,0,16.2.45,23.09,4.31,4.83,2.72,6.18,7.83,5.32,12.31-.66,3.48-6.45,7.72-10.39,7.41-12-1-23.82-2.43-34.8-7.78-3.38-1.65-6.51-3.62-8.33-7.13-1.56-3-1.09-4.18,2-5.35A63,63,0,0,1,797.69,716.69Z" transform="translate(101.57 259.21)"/><path class="cls-1" d="M1087.76,715.53c1.16,0,1.53,0,1.89,0,7.86-.77,9.47,4.16,8.61,10.24a8.19,8.19,0,0,1-3.74,5.42,79.24,79.24,0,0,1-14.57,5.63,85.19,85.19,0,0,1-15.48,2.63c-5.51.44-9.93-3.43-11.19-8.92-1.15-5-1.07-4.84,3.69-6.8,8.47-3.48,17-6.63,26.17-7.76C1084.93,715.74,1086.74,715.62,1087.76,715.53Z" transform="translate(101.57 259.21)"/><path class="cls-1" d="M1101,728.79V717.93a36.52,36.52,0,0,1,5.06,2.75c3.29,2.5,7.06,3.56,11,4.32,5.33,1,10.65,2.09,16,3.15a23.39,23.39,0,0,1,2.62.67c4.52,1.51,6.43,3.89,5.84,7.25s-3.6,7.63-8.4,7.38a18.05,18.05,0,0,1-12-4.86c-4.31-4.05-8.68-8.05-14.83-9.09C1104.51,729.2,1102.73,729,1101,728.79Z" transform="translate(101.57 259.21)"/><path class="cls-1" d="M767,724.5c1,1.85,1.83,3.51,2.47,4.73-6.67,3.88-13.19,7.88-19.92,11.47-2.29,1.22-5.11,1.56-7.74,1.95A3.72,3.72,0,0,1,739,741.3c-2.56-3-1.31-10.48,2.33-11.89a77.12,77.12,0,0,1,13.28-3.54C758.72,725.1,762.9,724.93,767,724.5Z" transform="translate(101.57 259.21)"/><path class="cls-1" d="M664.37,771.64a25.85,25.85,0,0,1-19.16-.09c-3.5-1.34-5-4.4-6.31-7.43a2.9,2.9,0,0,1,3.41-4.1,55.9,55.9,0,0,1,8.05,2.93c3.36,1.3,6.62,3,10.09,3.83C663.31,767.45,664.73,768.53,664.37,771.64Z" transform="translate(101.57 259.21)"/><path class="cls-1" d="M733,735.44c1.36,3.49,0,5.56-3.06,7.23s-5.72,3.79-8.6,5.66c-1.77,1.14-3.64,1.15-4.61-.9a40.59,40.59,0,0,1-3-8.07c-.61-2.56.76-3.89,3.42-3.91C722.44,735.41,727.77,735.44,733,735.44Z" transform="translate(101.57 259.21)"/><path class="cls-1" d="M1143.58,739.75c.28-1,.59-2.08.92-3.23,6-.55,11.75-.08,17.17,2.72,2.8,1.44,4.19,3.85,3.57,6.28-1.18,4.6-5.62,5.89-9.86,2.81-2-1.44-3.85-3-5.83-4.47S1145.68,741.19,1143.58,739.75Z" transform="translate(101.57 259.21)"/><path class="cls-1" d="M708.85,745.3c2.13.27,4.16,2.58,3.31,4.29a53.48,53.48,0,0,1-4.88,8.4c-2.48,3.29-4.73,3.91-7.12,2.72s-4.44-5.75-3.39-8.47a8.52,8.52,0,0,1,3.6-4.34C703,746.61,706,746.13,708.85,745.3Z" transform="translate(101.57 259.21)"/><path class="cls-1" d="M1168.25,745.82c2.65.32,5.27.5,7.83,1,3.27.63,6.06,2.18,6.92,5.67a5,5,0,0,1-2.59,5.75c-2.51,1.48-6.4,1.35-8.4-.59a59.85,59.85,0,0,1-5.28-6.17,2.38,2.38,0,0,1-.11-1.9A39.67,39.67,0,0,1,1168.25,745.82Z" transform="translate(101.57 259.21)"/><path class="cls-1" d="M1212.7,769.72c.75-.72,1.18-1.44,1.8-1.67q7.32-2.81,14.7-5.43a24.48,24.48,0,0,1,4.46-1.12c1.52-.23,3.29-.43,3.8,1.58s.48,4.09-1.67,5.24a21.86,21.86,0,0,1-4,1.51C1226.21,771.45,1217.14,771.49,1212.7,769.72Z" transform="translate(101.57 259.21)"/><path class="cls-1" d="M1182.57,760.5l3.58-4.74a77,77,0,0,1,9,2.59,4.33,4.33,0,0,1,2.18,3.47,14.57,14.57,0,0,1-2.34,6.09c-1.63,2.45-4.24,2.62-6.23.46C1186.47,765.87,1184.54,763,1182.57,760.5Z" transform="translate(101.57 259.21)"/><path class="cls-1" d="M692.94,756.6c2.17,2.72,2.25,5.09-.1,7.73-2.14,2.38-3.81,5.17-6.19,8.48-1.5-2.53-2.67-4.38-3.7-6.3-.55-1-.77-2.22-1.29-3.26-1.47-3-1.36-3.47,1.73-4.35S689.7,757.37,692.94,756.6Z" transform="translate(101.57 259.21)"/><path class="cls-1" d="M680,770.36c-1.82,1.1-3.54,2.23-5.34,3.21-3.15,1.73-4.38,1.38-6.15-1.72a11.06,11.06,0,0,1-1-2.76c-.8-3-.26-4,2.82-4.47a37.8,37.8,0,0,1,6.19-.48,2.35,2.35,0,0,1,1.66,1.22C678.88,766.9,679.37,768.54,680,770.36Z" transform="translate(101.57 259.21)"/><path class="cls-1" d="M1200.37,764.08h10.39c.38,4-.09,7.66-3.39,9.64-1.1.66-3.76-.77-5.43-1.74-1.33-.77-2.83-2.14-3.15-3.5S1199.73,765.7,1200.37,764.08Z" transform="translate(101.57 259.21)"/><path class="cls-1" d="M638.84,771.21c-3.86-.18-7.49-.2-11.08-.59-1-.11-1.86-1.31-2.78-2a12.2,12.2,0,0,1,3-1.11c2.15-.17,4.34.1,6.49-.11C636.94,767.14,638.16,768.21,638.84,771.21Z" transform="translate(101.57 259.21)"/><path class="cls-1" d="M1235.55,757.58c2.33-2.8,4.59-5.65,7-8.35.51-.56,1.7-.5,2.58-.74-.08.87.15,2-.3,2.57a87.62,87.62,0,0,1-6,7.27c-.49.52-1.75.32-2.65.45Z" transform="translate(101.57 259.21)"/><path class="cls-1" d="M633,749c4.43,1,5.53,5.18,8.35,7.63C637.19,758.54,633.11,754.87,633,749Z" transform="translate(101.57 259.21)"/><path class="cls-1" d="M1253.71,768.92c-4.64,2.77-9.42,1.44-14.4.55l.9-1.93Z" transform="translate(101.57 259.21)"/></svg>